HIERARCHY
ROOT Hips
{
	OFFSET 0.000000 8.830580 0.000000
	CHANNELS 6 Xposition Yposition Zposition Zrotation Yrotation Xrotation 
	JOINT Spine
	{
		OFFSET 0.000000 0.010000 0.000000
		CHANNELS 3 Zrotation Yrotation Xrotation
		JOINT Spine1
		{
			OFFSET 0.000000 2.459130 0.000000
			CHANNELS 3 Zrotation Yrotation Xrotation
			JOINT Neck
			{
				OFFSET 0.000000 2.484630 0.000000
				CHANNELS 3 Zrotation Yrotation Xrotation
				JOINT Head_virtual
				{
					OFFSET 0.000000 0.000000 0.000000
					CHANNELS 3 Zrotation Yrotation Xrotation
					JOINT Head
					{
						OFFSET 0.000000 0.927525 0.000000
						CHANNELS 3 Zrotation Yrotation Xrotation
						End Site
						{
							OFFSET 0.000000 0.000000 0.000000
						}
					}
				}
				JOINT LeftUpArm_virtual
				{
					OFFSET 0.000000 0.000000 0.000000
					CHANNELS 3 Zrotation Yrotation Xrotation
					JOINT LeftUpArm
					{
						OFFSET 1.248820 0.000000 0.000000
						CHANNELS 3 Zrotation Yrotation Xrotation
						JOINT LeftForeArm
						{
							OFFSET 2.597580 0.000000 0.000000
							CHANNELS 3 Zrotation Yrotation Xrotation
							JOINT LeftHand
							{
								OFFSET 2.455420 0.000000 0.000000
								CHANNELS 3 Zrotation Yrotation Xrotation
								End Site
								{
									OFFSET 0.000000 0.000000 0.000000
								}
							}
						}
					}
				}
				JOINT RightUpArm_virtual
				{
					OFFSET -0.000000 -0.000000 -0.000000
					CHANNELS 3 Zrotation Yrotation Xrotation
					JOINT RightUpArm
					{
						OFFSET -1.248820 -0.000000 -0.000000
						CHANNELS 3 Zrotation Yrotation Xrotation
						JOINT RightForeArm
						{
							OFFSET -2.597580 -0.000000 -0.000000
							CHANNELS 3 Zrotation Yrotation Xrotation
							JOINT RightHand
							{
								OFFSET -2.455420 -0.000000 -0.000000
								CHANNELS 3 Zrotation Yrotation Xrotation
								End Site
								{
									OFFSET 0.000000 0.000000 0.000000
								}
							}
						}
					}
				}
			}
		}
	}
	JOINT LeftUpLeg
	{
		OFFSET 1.271939 0.000000 0.000000
		CHANNELS 3 Zrotation Yrotation Xrotation
		JOINT LeftLowLeg
		{
			OFFSET 0.000000 -4.342910 0.000000
			CHANNELS 3 Zrotation Yrotation Xrotation
			JOINT LeftFoot
			{
				OFFSET 0.000000 -4.487670 0.000000
				CHANNELS 3 Zrotation Yrotation Xrotation
				JOINT LeftToeBase
				{
					OFFSET 0.000000 0.000000 1.515070
					CHANNELS 3 Zrotation Yrotation Xrotation
					End Site
					{
						OFFSET 0.000000 0.000000 0.000000
					}
				}
			}
		}
	}
	JOINT RightUpLeg
	{
		OFFSET -1.271939 0.000000 0.000000
		CHANNELS 3 Zrotation Yrotation Xrotation
		JOINT RightLowLeg
		{
			OFFSET 0.000000 -4.342910 0.000000
			CHANNELS 3 Zrotation Yrotation Xrotation
			JOINT RightFoot
			{
				OFFSET 0.000000 -4.487670 0.000000
				CHANNELS 3 Zrotation Yrotation Xrotation
				JOINT RightToeBase
				{
					OFFSET 0.000000 0.000000 1.515070
					CHANNELS 3 Zrotation Yrotation Xrotation
					End Site
					{
						OFFSET 0.000000 0.000000 0.000000
					}
				}
			}
		}
	}
}
MOTION
Frames: 16
Frame Time: 0.041667
-17.454018 9.064164 44.154602 -173.795070 0.842893 -174.720813 1.404117 0.143851 -9.666930 5.402072 0.439436 -6.739489 0.000000 0.000000 0.000000 -7.555585 -1.273999 20.983043 11.520210 11.816257 -89.170820 -23.550301 7.063540 -8.645810 11.555500 -12.264400 -25.565500 0.000000 -9.662760 0.000000 22.976801 10.025300 24.720400 20.405800 -7.988470 -6.588440 -8.275780 3.180820 -47.014198 0.000000 18.093100 0.000000 -26.461599 -17.350401 46.655201 1.975809 -3.269116 -6.391905 0.000000 0.000000 6.660200 -12.851339 11.673372 0.842425 0.000000 0.000000 -29.093000 9.516362 0.839937 -6.609243 0.000000 0.000000 10.520600 8.369642 -15.856508 1.122726 0.000000 0.000000 -40.631201 
-17.454727 9.064076 44.151502 -173.795805 0.881386 -174.663168 1.383929 0.137619 -9.743559 5.414167 0.435333 -6.692704 0.000000 0.000000 0.000000 -7.472412 -1.616528 21.041139 11.588270 11.699632 -89.203995 -23.558800 7.029810 -8.600180 11.470500 -12.295800 -25.831900 0.000000 -9.628410 0.000000 22.874800 10.156200 24.551399 20.422501 -8.033500 -6.731330 -8.209050 3.262220 -47.186100 0.000000 18.100000 0.000000 -26.392700 -17.240601 46.760799 1.977592 -3.329356 -6.391162 0.000000 0.000000 6.598270 -12.831843 11.746480 0.837235 0.000000 0.000000 -29.097300 9.508004 0.845186 -6.644066 0.000000 0.000000 10.513000 8.346926 -15.832745 1.173631 0.000000 0.000000 -40.606600 
-17.455433 9.063915 44.147941 -173.792390 0.933175 -174.593833 1.375139 0.133115 -9.832717 5.439945 0.428440 -6.622816 0.000000 0.000000 0.000000 -7.366627 -2.047139 21.064106 11.618863 11.563113 -89.278471 -23.568501 7.001960 -8.647910 11.388200 -12.315100 -25.964800 0.000000 -9.556320 0.000000 22.804300 10.053200 24.542801 20.418501 -8.011040 -6.767980 -8.166170 3.259500 -47.431301 0.000000 18.153999 0.000000 -26.364401 -17.259100 46.877499 1.982632 -3.380667 -6.400244 0.000000 0.000000 6.548120 -12.840309 11.818669 0.804046 0.000000 0.000000 -29.105900 9.501023 0.855667 -6.660576 0.000000 0.000000 10.443700 8.353678 -15.786759 1.296511 0.000000 0.000000 -40.536800 
-17.456080 9.063819 44.144743 -173.802839 0.984516 -174.523568 1.370331 0.128135 -9.920025 5.438749 0.418245 -6.515964 0.000000 0.000000 0.000000 -7.278254 -2.426058 20.990272 11.687815 11.418681 -89.334557 -23.565399 6.968100 -8.646790 11.346400 -12.278500 -25.951799 0.000000 -9.548980 0.000000 22.805901 10.044900 24.629400 20.438400 -7.978160 -6.729270 -8.179930 3.242060 -47.657799 0.000000 18.142000 0.000000 -26.400999 -17.232500 47.010601 1.976244 -3.442656 -6.429051 0.000000 0.000000 6.528490 -12.845593 11.900239 0.776387 0.000000 0.000000 -29.114800 9.479141 0.903705 -6.678285 0.000000 0.000000 10.378300 8.408002 -15.775767 1.361492 0.000000 0.000000 -40.443399 
-17.456850 9.063466 44.141177 -173.820948 1.069476 -174.486157 1.343134 0.131229 -9.960356 5.478600 0.422893 -6.436886 0.000000 0.000000 0.000000 -7.166022 -2.914655 20.892402 11.814617 11.210854 -89.355932 -23.559500 6.942240 -8.763110 11.282400 -12.250500 -25.712200 0.000000 -9.544230 0.000000 22.873301 10.037300 24.581100 20.394400 -7.957070 -6.750680 -8.175870 3.240270 -47.678501 0.000000 18.125299 0.000000 -26.450600 -17.307501 47.124802 1.958605 -3.525606 -6.415913 0.000000 0.000000 6.504940 -12.861366 12.029657 0.727987 0.000000 0.000000 -29.104200 9.447746 0.905243 -6.674847 0.000000 0.000000 10.334500 8.453282 -15.699592 1.438994 0.000000 0.000000 -40.434799 
-17.457817 9.063439 44.139613 -173.817386 1.189936 -174.478076 1.354399 0.151336 -9.873975 5.496880 0.440298 -6.447971 0.000000 0.000000 0.000000 -7.040568 -3.401127 20.838871 11.837664 11.060192 -89.466345 -23.595301 7.006880 -8.639010 11.361000 -12.257000 -25.758101 0.000000 -9.485700 0.000000 22.884399 10.043600 24.398800 20.363800 -7.925770 -6.686570 -8.197400 3.232970 -47.822300 0.000000 18.060699 0.000000 -26.518499 -17.246201 47.351898 1.943761 -3.409836 -6.400138 0.000000 0.000000 6.519180 -12.856433 12.027124 0.701908 0.000000 0.000000 -29.091700 9.433346 0.989868 -6.650167 0.000000 0.000000 10.278700 8.494250 -15.680802 1.597677 0.000000 0.000000 -40.512600 
-17.458871 9.063244 44.137084 -173.824109 1.288019 -174.451698 1.364590 0.160758 -9.831789 5.507838 0.448018 -6.466788 0.000000 0.000000 0.000000 -6.840545 -4.059869 20.814730 11.875958 10.873702 -89.540240 -23.595699 7.006200 -8.558080 11.397400 -12.185900 -25.860300 0.000000 -9.476760 0.000000 22.897301 10.079600 24.333500 20.349001 -7.822360 -6.570830 -8.274150 3.104930 -47.853401 0.000000 18.027599 0.000000 -26.596901 -17.248699 47.393902 1.924215 -3.389382 -6.391346 0.000000 0.000000 6.514510 -12.864388 12.086214 0.663406 0.000000 0.000000 -29.035600 9.404108 1.120608 -6.612190 0.000000 0.000000 10.159100 8.485493 -15.751166 1.841366 0.000000 0.000000 -40.296900 
-17.460578 9.062915 44.133247 -173.846968 1.437212 -174.365579 1.406347 0.200031 -9.850521 5.451164 0.477789 -6.477476 0.000000 0.000000 0.000000 -6.681721 -4.653494 20.798092 11.935093 10.699313 -89.668114 -23.574699 7.022620 -8.534640 11.433100 -12.129000 -25.914801 0.000000 -9.476540 0.000000 22.937000 10.137100 24.384501 20.371901 -7.791370 -6.582800 -8.337530 3.082900 -47.867199 0.000000 18.051600 0.000000 -26.664700 -17.276800 47.489101 1.883624 -3.377421 -6.392129 0.000000 0.000000 6.443250 -12.846507 12.217165 0.638358 0.000000 0.000000 -29.051700 9.351478 1.208857 -6.632873 0.000000 0.000000 10.035300 8.460253 -15.758394 2.225796 0.000000 0.000000 -40.380699 
-17.461772 9.062140 44.130535 -173.855930 1.531456 -174.295787 1.452732 0.210313 -9.818626 5.420962 0.478073 -6.502237 0.000000 0.000000 0.000000 -6.611749 -5.141634 20.765993 12.072551 10.495048 -89.830667 -23.585400 7.072880 -8.549310 11.496200 -12.105800 -25.992100 0.000000 -9.473970 0.000000 22.913099 10.196800 24.499901 20.388300 -7.794120 -6.545750 -8.405530 3.107090 -47.915401 0.000000 18.068001 0.000000 -26.710300 -17.248501 47.502102 1.852741 -3.243612 -6.432999 0.000000 0.000000 6.454660 -12.833954 12.190752 0.599724 0.000000 0.000000 -29.048100 9.321480 1.310644 -6.642986 0.000000 0.000000 9.889010 8.409589 -15.851301 2.729569 0.000000 0.000000 -40.357401 
-17.462175 9.061389 44.126091 -173.913452 1.646974 -174.182610 1.431021 0.227017 -9.877558 5.417518 0.499739 -6.493728 0.000000 0.000000 0.000000 -6.561472 -5.594236 20.767057 12.264845 10.281612 -89.957191 -23.621300 7.026770 -8.447960 11.616400 -11.965200 -26.076700 0.000000 -9.463920 0.000000 22.907101 10.194300 24.525400 20.413601 -7.806870 -6.534550 -8.490530 3.107530 -47.832901 0.000000 18.124599 0.000000 -26.687201 -17.262100 47.437698 1.799566 -3.388951 -6.429431 0.000000 0.000000 6.324150 -12.840921 12.427512 0.565859 0.000000 0.000000 -28.949800 9.244011 1.320480 -6.708630 0.000000 0.000000 9.760020 8.376693 -15.835612 3.352884 0.000000 0.000000 -40.561300 
-17.462646 9.060244 44.121731 -173.980189 1.747897 -174.089358 1.410611 0.212539 -9.877668 5.403148 0.496148 -6.580228 0.000000 0.000000 0.000000 -6.494208 -5.989258 20.794463 12.337991 10.101140 -89.966151 -23.613600 7.064200 -8.476760 11.665600 -11.919300 -25.993000 0.000000 -9.410590 0.000000 22.992701 10.202400 24.577101 20.406500 -7.764810 -6.422970 -8.511390 3.070100 -47.852901 0.000000 18.227600 0.000000 -26.645599 -17.225201 47.431599 1.754765 -3.731674 -6.380935 0.000000 0.000000 6.136390 -12.872243 12.810092 0.518916 0.000000 0.000000 -28.899700 9.147929 1.430314 -6.759096 0.000000 0.000000 9.635400 8.591832 -15.850758 3.866738 0.000000 0.000000 -40.479099 
-17.464007 9.059628 44.118888 -174.078286 1.881128 -174.017667 1.390123 0.211121 -9.844957 5.343280 0.507134 -6.682813 0.000000 0.000000 0.000000 -6.486337 -6.167510 20.806202 12.495942 9.976839 -89.943530 -23.653299 7.055880 -8.539090 11.770400 -11.826100 -25.877800 0.000000 -9.396180 0.000000 23.103100 10.226800 24.509600 20.435101 -7.716520 -6.442390 -8.542550 3.075770 -47.724499 0.000000 18.277901 0.000000 -26.598200 -17.142401 47.277000 1.712929 -4.692051 -6.246777 0.000000 0.000000 5.821870 -12.928484 13.780243 0.420298 0.000000 0.000000 -28.783200 9.017810 1.450628 -6.865471 0.000000 0.000000 9.683760 8.774498 -15.701271 4.048193 0.000000 0.000000 -40.617100 
-17.463509 9.058401 44.113358 -174.079054 2.031057 -173.991316 1.406177 0.222532 -9.818755 5.357565 0.514850 -6.695122 0.000000 0.000000 0.000000 -6.475118 -6.250703 20.769851 12.480552 9.942581 -89.982293 -23.667500 7.130300 -8.560630 11.814300 -11.812700 -25.927799 0.000000 -9.406680 0.000000 23.191299 10.303600 24.476801 20.437099 -7.712120 -6.503040 -8.565100 3.145710 -47.589001 0.000000 18.286800 0.000000 -26.531401 -17.073299 47.136902 1.689342 -4.348744 -6.242122 0.000000 0.000000 5.872830 -12.904860 13.546506 0.384394 0.000000 0.000000 -28.846700 8.996633 1.531828 -6.891455 0.000000 0.000000 9.726910 8.882180 -15.629171 4.174197 0.000000 0.000000 -40.520800 
-17.463474 9.057694 44.107235 -174.080541 2.133132 -173.920408 1.432114 0.206773 -9.869905 5.358792 0.490917 -6.667696 0.000000 0.000000 0.000000 -6.491036 -6.194070 20.687490 12.487024 9.961377 -90.022656 -23.582600 7.241190 -8.551260 11.711300 -11.722900 -25.944799 0.000000 -9.609020 0.000000 23.085100 10.490500 24.319401 20.437599 -7.658740 -6.495100 -8.573220 3.186490 -47.608299 0.000000 18.287701 0.000000 -26.477400 -17.039200 47.142899 1.671486 -4.062125 -6.313786 0.000000 0.000000 5.985900 -12.888083 13.311177 0.337981 0.000000 0.000000 -28.868500 8.968356 1.590834 -6.951723 0.000000 0.000000 9.748170 8.902489 -15.523352 4.363880 0.000000 0.000000 -40.265200 
-17.464020 9.057187 44.101002 -174.120196 2.223082 -173.851078 1.402820 0.184554 -9.906092 5.406555 0.474435 -6.646689 0.000000 0.000000 0.000000 -6.491766 -6.173727 20.592785 12.409412 9.991509 -90.109586 -23.582300 7.343680 -8.462900 11.693500 -11.720600 -26.150801 0.000000 -9.631830 0.000000 23.036699 10.491300 24.257299 20.400499 -7.629330 -6.472070 -8.566590 3.217680 -47.616299 0.000000 18.304899 0.000000 -26.470301 -17.083599 47.194401 1.636760 -4.252516 -6.329437 0.000000 0.000000 5.986340 -12.869005 13.556664 0.261485 0.000000 0.000000 -28.812900 8.905227 1.718166 -7.024014 0.000000 0.000000 9.800960 8.873273 -15.532252 4.462898 0.000000 0.000000 -40.418301 
-17.464379 9.057097 44.093848 -174.123895 2.321207 -173.828898 1.408300 0.201698 -9.929813 5.434537 0.483862 -6.553175 0.000000 0.000000 0.000000 -6.477806 -6.125100 20.520695 12.273687 10.093679 -90.286501 -23.565901 7.419410 -8.395440 11.642400 -11.734300 -26.299299 0.000000 -9.709630 0.000000 22.951099 10.477600 24.218100 20.386200 -7.646770 -6.491580 -8.583360 3.254540 -47.653198 0.000000 18.252199 0.000000 -26.399200 -17.049500 47.153801 1.624863 -4.247058 -6.308985 0.000000 0.000000 6.025310 -12.894467 13.597731 0.186014 0.000000 0.000000 -28.753800 8.863779 2.060237 -7.009914 0.000000 0.000000 9.797300 9.073347 -15.638518 4.548618 0.000000 0.000000 -40.535200 
